<svg width="248" height="112" viewBox="0 0 248 112" fill="none" xmlns="http://www.w3.org/2000/svg">
<g filter="url(#filter0_d_354_1562)">
<path d="M82.5 41V72.5V73L83 73.5L83.5 74L84 74.5H90.5L91.5 74L92 73.5L92.5 72.5V72L93 71V70.5V55L92.5 54L92 53.5L90.5 52.5H89.5L89 52H88.5H88L87.5 50.5V47L88.5 46V45.5L89 45L89.5 44.5H100H100.5L101 44L102 43.5L102.5 43V40.5L102 40L101 39.5H100.5H84L83 40L82.5 41Z" fill="#A0C88D"/>
<path d="M48.5 26V72L49 73L49.5 73.5L50 74L50.5 74.5H57L57.5 74L58 73.5L58.5 73L59 72V71.5V56L58.5 55.5L57.5 54.5L57 54H55.5H55L54 53V47.5V46L55 45L55.5 44.5H68.5L69.5 45L70 46L70.5 47V72.5V73.5L71 74.5H72H74.5H75L75.5 74L76 73V41.5L75.5 40.5L74.5 40L73.5 39.5H55V39L54 38L53.5 36.5V26L53 25L52.5 24.5L51.5 24H50L49 24.5L48.5 26Z" fill="#A0C88D"/>
<path d="M161 40L160.5 39L160 38.5H158L157 39L156.5 40V54L157.5 55L158.5 56L159.5 56.5L158.5 57.5L157.5 58L156.5 58.5V72V72.5L157.5 73.5L158.5 74.5H164.5L165.5 74L166.5 73L167 72V60.5L168 59.5L169 59H177L178 59.5L178.5 60V73L179 74L179.5 74.5H180.5H183.5L184 74L184.5 73.5V59L184 58.5L183.5 58L183 57.5L182 57L181.5 56.5L182.5 56L183 55.5L183.5 55L184 54.5L184.5 54V41L184 40L183.5 39.5L183 38.5H180.5H179.5L179 39L178.5 40V41V51.5L178 52.5L177.5 53H163L162 52L161.5 51V40.5L161 40Z" fill="#A0C88D"/>
<path d="M26 43L27 44.5L29 45H30.5L31.5 45.5V47V71.6992L32 73L32.5 73.5L33 74L33.5 74.5H39.5H40.5L41 73.5L41.5 72.5L42 71.6992V61V54L41.5 53.5L40.5 52.5L39.5 52H38.5H38L37.5 51.5L37 51V48.5V46V45.5L37.5 45L38 44.5H41H41.5L42 44L42.5 43.5V42.5V41L42 39.5L41.5 39H40.5H39.5H38L37.5 38.5L37 38V29L36.5 28L36 27L35.5 26.5H33L32.5 27L32 27.5L31.5 28.5V37.5L31 39H27.5L26.5 39.5L26 40V43Z" fill="#A0C88D"/>
<path fill-rule="evenodd" clip-rule="evenodd" d="M106 65L106.5 64.5L107 63.5L107.5 63H108L108.5 63.5H109.235L110 64L111 64.5L111.5 65H112L112.5 65.5L113 66L113.5 66.5H114L114.5 66V65.5L114 65L113.5 64.5L113 64L112.5 63.5L112 63L111.5 62.5L111 62H110.5L110 61.5L109.5 61L108.5 60.5L109.235 60L110 59.5L110.5 59V52L111 51.5L111.5 51L112 50.5V50V49.5L112.5 49V48.5L113 48V47L113.5 46.5V46L114 45.5V45L114.5 44.5V44L115 43.5V43L115.5 42.5V42L116 41.5V41L116.5 40.5H117.5H119L119.5 40L120 39.5H121L121.5 39H122L122.5 38.5H123.5L124 38H126L126.5 37.5H128L129 38L129.5 38.5L130 39H131L132 39.5L132.5 40H134L135 40.5H138.5L139.5 41H142L143 41.5H144.5L145.5 42.5L146 43L146.5 43.5L147 44L147.5 44.5L148 45L148.5 45.5L149 46V49L148.5 50V51L148 51.5V52.5V53L147 53.5L146.5 54H145.5H145L144.5 53.5L144 53L143 54L142.5 52.5L142 52L141 53L140 51.5V51L138.5 52.5L137.5 51.5L137 51L136 51.5L135 52.5L133.5 51.5H132.5L131.5 52.5L130.5 52H129L128 53H126.5L125.5 54V54.5H128L130 53.5L131.5 54.5L133 53.5L134 54L135 54.5L136.5 53.5L137.5 55L139.5 54L140 55.5L141.5 54.5L142 56.5L144 56L144.5 57.5V58.5L144 59.5L143 60L142 60.5L140.5 61H133L132 61.5H130.5L129.5 62L128.5 63L127.5 63.5L126 62L125 61L124 60L123 59.5L122 59L121.5 58C121.333 57.6667 121 56.9 121 56.5V56V55L120.5 54L120 53.5H119V55.5V56.5L119.5 57.5L120 58.5L120.5 59.5L121.5 60L122 60.5L122.5 61L123 61.5L124 62L124.5 63L125.5 64V66.5L126 67.5V68.5L125.5 69.5V71L125 72.5V73.5L124.5 74.5L124 76L123.5 78L122.5 77.5L121.5 77L120 76.5L117.5 75.5L115.5 74.5L113.5 74L112.5 72.5L110.5 71L109.235 69.5L107.5 68L106.5 66.5L106 65ZM124.5 41.5L123.5 42L122.5 42.5H123L124 43L125 43.5L126 44H127L127.5 43.5L128.5 43L130 42.5L129 42L128.5 41.5L128 41H126.5H125.5L124.5 41.5Z" fill="#D4EA33"/>
</g>
<defs>
<filter id="filter0_d_354_1562" x="20.7" y="22.7" width="169.1" height="64.6" filterUnits="userSpaceOnUse" color-interpolation-filters="sRGB">
<feFlood flood-opacity="0" result="BackgroundImageFix"/>
<feColorMatrix in="SourceAlpha" type="matrix" values="0 0 0 0 0 0 0 0 0 0 0 0 0 0 0 0 0 0 127 0" result="hardAlpha"/>
<feOffset dy="4"/>
<feGaussianBlur stdDeviation="2.65"/>
<feComposite in2="hardAlpha" operator="out"/>
<feColorMatrix type="matrix" values="0 0 0 0 0 0 0 0 0 0 0 0 0 0 0 0 0 0 0.83 0"/>
<feBlend mode="normal" in2="BackgroundImageFix" result="effect1_dropShadow_354_1562"/>
<feBlend mode="normal" in="SourceGraphic" in2="effect1_dropShadow_354_1562" result="shape"/>
</filter>
</defs>
</svg>
